# xmcd
#
# Track frame offsets:
#	150
#	39962
#	48896
#	76386
#	93374
#
# Disc length: 1663 seconds
#
# Revision: 0
# Processed by: cddbd v1.4PL0 Copyright (c) Steve Scherf et al.
# Submitted via: dBpowerAMP V4.0
#
DISCID=2d067d05
DTITLE=Rascal Flatts - "Live"
DYEAR=2003
DGENRE=Country
TTITLE0=One Good Love
TTITLE1=Lean On Me
TTITLE2=See Me Through
TTITLE3=I Melt
TTITLE4=Encore: Foreplay/Long Time, Free Ride
EXTD=This is the audio CD that came with the DVD of Rascal Flatts' concert on Daytona Beach\n
EXTT0=
EXTT1=
EXTT2=
EXTT3=
EXTT4=
PLAYORDER=
